<mxfile host="65bd71144e">
    <diagram name="Page-1" id="KY69GH7PF-7IZM2q5loz">
        <mxGraphModel dx="1674" dy="773" grid="1" gridSize="10" guides="1" tooltips="1" connect="0" arrows="1" fold="1" page="1" pageScale="1" pageWidth="700" pageHeight="1000" math="0" shadow="0">
            <root>
                <mxCell id="0"/>
                <mxCell id="1" parent="0"/>
                <mxCell id="H3zH-kOcSQTmJ640Yz3Q-1" value="Car" style="swimlane;fontStyle=1;align=center;verticalAlign=top;childLayout=stackLayout;horizontal=1;startSize=26;horizontalStack=0;resizeParent=1;resizeParentMax=0;resizeLast=0;collapsible=1;marginBottom=0;" parent="1" vertex="1">
                    <mxGeometry x="270" y="40" width="160" height="138" as="geometry"/>
                </mxCell>
                <mxCell id="H3zH-kOcSQTmJ640Yz3Q-2" value="- engine: Engine;" style="text;strokeColor=none;fillColor=none;align=left;verticalAlign=top;spacingLeft=4;spacingRight=4;overflow=hidden;rotatable=0;points=[[0,0.5],[1,0.5]];portConstraint=eastwest;" parent="H3zH-kOcSQTmJ640Yz3Q-1" vertex="1">
                    <mxGeometry y="26" width="160" height="26" as="geometry"/>
                </mxCell>
                <mxCell id="H3zH-kOcSQTmJ640Yz3Q-7" value="- gearbox: Gearbox;" style="text;strokeColor=none;fillColor=none;align=left;verticalAlign=top;spacingLeft=4;spacingRight=4;overflow=hidden;rotatable=0;points=[[0,0.5],[1,0.5]];portConstraint=eastwest;" parent="H3zH-kOcSQTmJ640Yz3Q-1" vertex="1">
                    <mxGeometry y="52" width="160" height="26" as="geometry"/>
                </mxCell>
                <mxCell id="H3zH-kOcSQTmJ640Yz3Q-5" value="- fuelPump: FuelPump;" style="text;strokeColor=none;fillColor=none;align=left;verticalAlign=top;spacingLeft=4;spacingRight=4;overflow=hidden;rotatable=0;points=[[0,0.5],[1,0.5]];portConstraint=eastwest;" parent="H3zH-kOcSQTmJ640Yz3Q-1" vertex="1">
                    <mxGeometry y="78" width="160" height="26" as="geometry"/>
                </mxCell>
                <mxCell id="H3zH-kOcSQTmJ640Yz3Q-3" value="" style="line;strokeWidth=1;fillColor=none;align=left;verticalAlign=middle;spacingTop=-1;spacingLeft=3;spacingRight=3;rotatable=0;labelPosition=right;points=[];portConstraint=eastwest;strokeColor=inherit;" parent="H3zH-kOcSQTmJ640Yz3Q-1" vertex="1">
                    <mxGeometry y="104" width="160" height="8" as="geometry"/>
                </mxCell>
                <mxCell id="H3zH-kOcSQTmJ640Yz3Q-4" value="+Â  startCar(): void" style="text;strokeColor=none;fillColor=none;align=left;verticalAlign=top;spacingLeft=4;spacingRight=4;overflow=hidden;rotatable=0;points=[[0,0.5],[1,0.5]];portConstraint=eastwest;" parent="H3zH-kOcSQTmJ640Yz3Q-1" vertex="1">
                    <mxGeometry y="112" width="160" height="26" as="geometry"/>
                </mxCell>
                <mxCell id="H3zH-kOcSQTmJ640Yz3Q-8" value="Gearbox" style="swimlane;fontStyle=1;align=center;verticalAlign=top;childLayout=stackLayout;horizontal=1;startSize=26;horizontalStack=0;resizeParent=1;resizeParentMax=0;resizeLast=0;collapsible=1;marginBottom=0;" parent="1" vertex="1">
                    <mxGeometry x="270" y="250" width="160" height="52" as="geometry"/>
                </mxCell>
                <mxCell id="H3zH-kOcSQTmJ640Yz3Q-11" value="+ setGear(gear: string): void" style="text;strokeColor=none;fillColor=none;align=left;verticalAlign=top;spacingLeft=4;spacingRight=4;overflow=hidden;rotatable=0;points=[[0,0.5],[1,0.5]];portConstraint=eastwest;" parent="H3zH-kOcSQTmJ640Yz3Q-8" vertex="1">
                    <mxGeometry y="26" width="160" height="26" as="geometry"/>
                </mxCell>
                <mxCell id="H3zH-kOcSQTmJ640Yz3Q-14" value="Engine" style="swimlane;fontStyle=1;align=center;verticalAlign=top;childLayout=stackLayout;horizontal=1;startSize=26;horizontalStack=0;resizeParent=1;resizeParentMax=0;resizeLast=0;collapsible=1;marginBottom=0;" parent="1" vertex="1">
                    <mxGeometry x="80" y="250" width="160" height="52" as="geometry"/>
                </mxCell>
                <mxCell id="H3zH-kOcSQTmJ640Yz3Q-17" value="+ turnCrankshaft(): void" style="text;strokeColor=none;fillColor=none;align=left;verticalAlign=top;spacingLeft=4;spacingRight=4;overflow=hidden;rotatable=0;points=[[0,0.5],[1,0.5]];portConstraint=eastwest;" parent="H3zH-kOcSQTmJ640Yz3Q-14" vertex="1">
                    <mxGeometry y="26" width="160" height="26" as="geometry"/>
                </mxCell>
                <mxCell id="H3zH-kOcSQTmJ640Yz3Q-18" value="FuelPump" style="swimlane;fontStyle=1;align=center;verticalAlign=top;childLayout=stackLayout;horizontal=1;startSize=26;horizontalStack=0;resizeParent=1;resizeParentMax=0;resizeLast=0;collapsible=1;marginBottom=0;" parent="1" vertex="1">
                    <mxGeometry x="460" y="250" width="160" height="52" as="geometry"/>
                </mxCell>
                <mxCell id="H3zH-kOcSQTmJ640Yz3Q-21" value="+ fuelSupply(): void" style="text;strokeColor=none;fillColor=none;align=left;verticalAlign=top;spacingLeft=4;spacingRight=4;overflow=hidden;rotatable=0;points=[[0,0.5],[1,0.5]];portConstraint=eastwest;" parent="H3zH-kOcSQTmJ640Yz3Q-18" vertex="1">
                    <mxGeometry y="26" width="160" height="26" as="geometry"/>
                </mxCell>
                <mxCell id="H3zH-kOcSQTmJ640Yz3Q-22" value="" style="endArrow=none;html=1;rounded=0;entryX=0.563;entryY=-0.023;entryDx=0;entryDy=0;entryPerimeter=0;exitX=0.488;exitY=-0.047;exitDx=0;exitDy=0;exitPerimeter=0;" parent="1" source="H3zH-kOcSQTmJ640Yz3Q-14" target="H3zH-kOcSQTmJ640Yz3Q-18" edge="1">
                    <mxGeometry width="50" height="50" relative="1" as="geometry">
                        <mxPoint x="160" y="220" as="sourcePoint"/>
                        <mxPoint x="570" y="220" as="targetPoint"/>
                        <Array as="points">
                            <mxPoint x="158" y="220"/>
                            <mxPoint x="550" y="220"/>
                        </Array>
                    </mxGeometry>
                </mxCell>
                <mxCell id="H3zH-kOcSQTmJ640Yz3Q-24" value="" style="endArrow=diamondThin;endFill=1;endSize=24;html=1;rounded=0;entryX=0.494;entryY=0.962;entryDx=0;entryDy=0;entryPerimeter=0;exitX=0.5;exitY=-0.035;exitDx=0;exitDy=0;exitPerimeter=0;" parent="1" source="H3zH-kOcSQTmJ640Yz3Q-8" target="H3zH-kOcSQTmJ640Yz3Q-4" edge="1">
                    <mxGeometry width="160" relative="1" as="geometry">
                        <mxPoint x="270" y="210" as="sourcePoint"/>
                        <mxPoint x="430" y="210" as="targetPoint"/>
                    </mxGeometry>
                </mxCell>
            </root>
        </mxGraphModel>
    </diagram>
</mxfile>